<svg width="20" height="20" viewBox="0 0 20 20" fill="currentColor" xmlns="http://www.w3.org/2000/svg">
<path fill-rule="evenodd" clip-rule="evenodd" d="M12.7124 6.25C12.7124 7.96017 11.8113 9.46433 10.4591 10.3124C10.5357 10.3456 10.6118 10.3803 10.6873 10.4167C10.9957 10.5667 11.1291 10.9333 10.9874 11.25C10.8374 11.5583 10.4708 11.7 10.1541 11.55C9.45409 11.2167 8.70408 11.05 7.92073 11.05C5.04574 11.05 2.7124 13.3833 2.7124 16.2583C2.7124 16.6 2.42907 16.8833 2.0874 16.8833V16.875C1.74574 16.875 1.4624 16.5917 1.4624 16.25C1.4624 13.5921 3.08048 11.3014 5.38235 10.3124C4.03014 9.46425 3.12907 7.96017 3.12907 6.25C3.12907 3.60833 5.27907 1.45833 7.92073 1.45833C10.5624 1.45833 12.7124 3.60833 12.7124 6.25ZM4.37907 6.25C4.37907 8.2 5.97074 9.79166 7.92073 9.79166C9.87075 9.79166 11.4624 8.2 11.4624 6.25C11.4624 4.3 9.87075 2.70833 7.92073 2.70833C5.97074 2.70833 4.37907 4.3 4.37907 6.25ZM14.3788 17.9167C14.3788 18.2583 14.6621 18.5417 15.0037 18.5417C15.3454 18.5417 15.6287 18.2583 15.6287 17.9167V17.2167C16.1454 17.0917 16.6121 16.825 16.9788 16.4333L17.6038 16.7917C17.9038 16.9583 18.2788 16.8583 18.4538 16.5583C18.6204 16.2583 18.5204 15.8833 18.2204 15.7083L17.5954 15.35C17.6704 15.1 17.7038 14.8417 17.7038 14.5833C17.7038 14.325 17.6704 14.0667 17.5954 13.8167L18.2204 13.4583C18.5204 13.2917 18.6288 12.9083 18.4538 12.6083C18.2871 12.3083 17.9038 12.2 17.6038 12.375L16.9788 12.7333C16.6204 12.35 16.1454 12.075 15.6287 11.95V11.25C15.6287 10.9083 15.3454 10.625 15.0037 10.625C14.6621 10.625 14.3788 10.9083 14.3788 11.25V11.95C13.8621 12.075 13.3954 12.3417 13.0288 12.7333L12.4038 12.375C12.1038 12.2 11.7288 12.3083 11.5538 12.6083C11.3871 12.9083 11.4871 13.2833 11.7871 13.4583L12.4121 13.8167C12.3371 14.0667 12.3038 14.325 12.3038 14.5833C12.3038 14.8417 12.3371 15.1 12.4121 15.35L11.7871 15.7083C11.4871 15.875 11.3788 16.2583 11.5538 16.5583C11.7204 16.8583 12.1038 16.9583 12.4038 16.7917L13.0288 16.4333C13.3871 16.8167 13.8621 17.0917 14.3788 17.2167V17.9167ZM16.2704 15.3083C16.0121 15.7583 15.5287 16.0417 15.0037 16.0417C14.4788 16.0417 13.9953 15.7583 13.737 15.3083C13.612 15.0833 13.5454 14.8417 13.5454 14.5833C13.5454 14.325 13.612 14.0833 13.737 13.8583C13.9953 13.4083 14.4788 13.125 15.0037 13.125C15.5287 13.125 16.0121 13.4083 16.2704 13.8583C16.3954 14.0833 16.4621 14.325 16.4621 14.5833C16.4621 14.8417 16.3954 15.0917 16.2704 15.3083Z" fill="#5C5C5C"/>
</svg>
