<svg width="20" height="20" viewBox="0 0 20 20" fill="currentColor" xmlns="http://www.w3.org/2000/svg">
<path d="M13.6942 2.00084C14.7992 2.45834 15.8034 3.12917 16.6492 3.97501C17.4951 4.82084 18.1667 5.82501 18.6242 6.93084L18.6467 6.98417C18.8626 7.50584 19.0634 7.99084 19.1359 8.44001C19.2201 8.96417 19.1351 9.44251 18.8276 9.94001C18.8026 9.98001 18.7626 10.04 18.7351 10.0783C18.3684 10.5867 17.8884 10.8317 17.3126 10.9425C16.7959 11.0417 16.1559 11.0417 15.4176 11.0417H13.5584C12.7959 11.0417 12.1609 11.0417 11.6567 10.9742C11.1251 10.9025 10.6476 10.7458 10.2634 10.3617C9.87923 9.97751 9.72257 9.49917 9.6509 8.96834C9.5834 8.46417 9.5834 7.82917 9.5834 7.06667V5.20667C9.5834 4.46917 9.5834 3.82834 9.68257 3.31251C9.7934 2.73667 10.0376 2.25667 10.5467 1.89001C10.5851 1.86167 10.6451 1.82167 10.6851 1.79751C11.1826 1.49001 11.6609 1.40501 12.1851 1.48917C12.6342 1.56167 13.1192 1.76251 13.6401 1.97834L13.6942 2.00084ZM7.58923 3.48917C2.9909 5.50001 1.89757 11.8075 5.39923 15.2758C8.96507 18.8092 15.2167 17.4867 17.1326 12.9467C17.2667 12.6292 17.6334 12.48 17.9509 12.6142C18.2692 12.7483 18.4184 13.115 18.2842 13.4333C16.0301 18.7733 8.72507 20.3308 4.51923 16.1642C0.4009 12.0842 1.66757 4.71501 7.0884 2.34417C7.40423 2.20584 7.7734 2.35001 7.9109 2.66667C8.04923 2.98251 7.90507 3.35084 7.58923 3.48917ZM11.3417 2.86084C11.3267 2.87001 11.2926 2.89334 11.2776 2.90334C11.0826 3.04417 10.9751 3.21167 10.9101 3.54917C10.8359 3.93334 10.8334 4.45251 10.8334 5.26417V7.02251C10.8334 7.84084 10.8342 8.39084 10.8901 8.80167C10.9426 9.19417 11.0342 9.36501 11.1476 9.47751C11.2601 9.59084 11.4309 9.68251 11.8234 9.73501C12.2342 9.79001 12.7842 9.79167 13.6017 9.79167H15.3609C16.1717 9.79167 16.6917 9.78917 17.0759 9.71501C17.4134 9.65001 17.5809 9.54167 17.7217 9.34667C17.7317 9.33251 17.7551 9.29751 17.7642 9.28251C17.9134 9.04167 17.9384 8.86667 17.9017 8.63834C17.8551 8.35084 17.7151 8.00251 17.4692 7.40917C17.0742 6.45501 16.4959 5.58917 15.7659 4.85917C15.0359 4.12917 14.1692 3.55084 13.2159 3.15584C12.6226 2.90917 12.2734 2.76917 11.9867 2.72334C11.7576 2.68667 11.5834 2.71167 11.3417 2.86084Z" fill="#5C5C5C"/>
</svg>
