<svg width="20" height="20" viewBox="0 0 20 20" fill="currentColor" xmlns="http://www.w3.org/2000/svg">
<path d="M10.4166 1.04167C11.0241 1.04167 11.5824 1.19833 12.2008 1.46833C12.7999 1.73 13.4941 2.11667 14.3683 2.60333L17.8199 4.52417C18.3008 4.79167 18.7024 5.1275 18.9783 5.58C19.2566 6.035 19.3749 6.55584 19.3749 7.14084V7.19584C19.3757 7.40834 19.3758 7.625 19.3249 7.81834C19.1958 8.30417 18.8874 8.6175 18.5107 8.785C18.2416 8.905 17.9541 8.94417 17.7083 8.95417V15.1525C18.6999 15.6758 19.3749 16.7175 19.3749 17.9167C19.3749 18.4917 18.9091 18.9583 18.3333 18.9583H2.49992C1.92492 18.9583 1.45825 18.4917 1.45825 17.9167C1.45825 16.7175 2.13409 15.6758 3.12492 15.1525V8.95417C2.87909 8.94417 2.59159 8.905 2.32242 8.785C1.94575 8.6175 1.63825 8.30417 1.50909 7.81834C1.47075 7.67334 1.46075 7.515 1.45909 7.35583L1.45825 7.14084C1.45825 6.55584 1.57742 6.035 1.85492 5.58C2.13075 5.1275 2.53325 4.79167 3.01325 4.52417L6.46492 2.60333C7.33908 2.11667 8.03408 1.73 8.63325 1.46833C9.25075 1.19833 9.80908 1.04167 10.4166 1.04167ZM9.13325 2.61417C8.59575 2.84833 7.95325 3.20583 7.04575 3.71083L3.62075 5.61667C3.26992 5.81167 3.05492 6.01334 2.92159 6.23083C2.79075 6.44667 2.70825 6.72917 2.70825 7.14084C2.70825 7.28167 2.70825 7.36667 2.71159 7.43083C2.71325 7.47667 2.71659 7.495 2.71742 7.4975C2.73325 7.55917 2.75325 7.58583 2.76325 7.5975C2.77492 7.61 2.79325 7.62667 2.83159 7.64333C2.92242 7.68417 3.07409 7.70833 3.30742 7.70833H17.5258C17.7599 7.70833 17.9108 7.68417 18.0024 7.64333C18.0399 7.62667 18.0591 7.61 18.0699 7.5975C18.0799 7.58583 18.0999 7.55917 18.1166 7.4975C18.1166 7.495 18.1199 7.47667 18.1224 7.43083C18.1249 7.36667 18.1249 7.28167 18.1249 7.14084C18.1249 6.72917 18.0432 6.44667 17.9116 6.23083C17.7791 6.01334 17.5641 5.81167 17.2124 5.61667L13.7882 3.71083C12.8808 3.20583 12.2374 2.84833 11.6999 2.61417C11.1749 2.38417 10.7924 2.29167 10.4166 2.29167C10.0408 2.29167 9.65825 2.38417 9.13325 2.61417ZM7.70825 14.7917H13.1249V8.95833H7.70825V14.7917ZM16.2499 16.0417H4.58325C3.61825 16.0417 2.82325 16.7708 2.71992 17.7083H18.1133C18.0099 16.7708 17.2149 16.0417 16.2499 16.0417ZM14.3749 14.7917H16.2499C16.3199 14.7917 16.3891 14.7942 16.4583 14.7983V8.95833H14.3749V14.7917ZM4.37492 14.7983C4.44408 14.7942 4.51325 14.7917 4.58325 14.7917H6.45825V8.95833H4.37492V14.7983ZM9.57992 5.83333C9.57992 5.37333 9.95325 5 10.4133 5H10.4208C10.8808 5 11.2541 5.37333 11.2541 5.83333C11.2541 6.29333 10.8808 6.66667 10.4208 6.66667H10.4133C9.95325 6.66667 9.57992 6.29333 9.57992 5.83333Z" fill="#5C5C5C"/>
</svg>
