<svg width="20" height="20" viewBox="0 0 20 20" fill="currentColor" xmlns="http://www.w3.org/2000/svg">
<path fill-rule="evenodd" clip-rule="evenodd" d="M5.65155 8.74167C5.56821 8.74167 5.48488 8.72492 5.40155 8.69159C4.26821 8.19994 3.54321 7.075 3.54321 5.83334C3.54321 4.10834 4.94321 2.70834 6.66821 2.70834C7.00988 2.70834 7.29321 2.99167 7.29321 3.33334C7.29321 3.675 7.00988 3.95834 6.66821 3.95834C5.63488 3.95834 4.79321 4.8 4.79321 5.83334C4.79321 6.575 5.22655 7.25004 5.90155 7.54171C6.21821 7.68338 6.35988 8.05004 6.22655 8.36667C6.12655 8.6 5.89321 8.74167 5.65155 8.74167ZM13.7766 8.36667C13.8849 8.6 14.1099 8.74167 14.3516 8.74167C14.4349 8.74167 14.5183 8.72492 14.6016 8.69159C15.7266 8.19161 16.4599 7.075 16.4599 5.83334C16.4599 4.10834 15.0599 2.70834 13.3349 2.70834C12.9933 2.70834 12.7099 2.99167 12.7099 3.33334C12.7099 3.675 12.9933 3.95834 13.3349 3.95834C14.3683 3.95834 15.2099 4.8 15.2099 5.83334C15.2099 6.575 14.7766 7.24171 14.1016 7.54171C13.7766 7.68338 13.6349 8.05004 13.7766 8.36667ZM6.87655 6.66667C6.87655 8.39167 8.27655 9.79167 10.0016 9.79167C11.7266 9.79167 13.1266 8.39167 13.1266 6.66667C13.1266 4.94167 11.7266 3.54167 10.0016 3.54167C8.27655 3.54167 6.87655 4.94167 6.87655 6.66667ZM8.12655 6.66667C8.12655 5.63334 8.96825 4.79167 10.0016 4.79167C11.0349 4.79167 11.8766 5.63334 11.8766 6.66667C11.8766 7.7 11.0349 8.54167 10.0016 8.54167C8.96825 8.54167 8.12655 7.7 8.12655 6.66667ZM13.5683 17.2917H6.42655C5.29321 17.2917 4.37655 16.375 4.37655 15.2417C4.37655 12.925 6.25988 11.0417 8.57659 11.0417H11.4349C13.7516 11.0417 15.6349 12.925 15.6349 15.2417C15.6349 16.375 14.7099 17.2917 13.5849 17.2917H13.5683ZM8.56825 12.2917C6.94321 12.2917 5.61821 13.6167 5.61821 15.2417C5.61821 15.6833 5.97655 16.0417 6.41821 16.0417H13.5599C14.0016 16.0417 14.3599 15.6833 14.3599 15.2417C14.3599 13.6167 13.0349 12.2917 11.4099 12.2917H8.56825ZM16.2775 15.8333C16.2775 16.175 16.5608 16.4583 16.9025 16.4583C18.0275 16.4583 18.9525 15.5417 18.9525 14.4083C18.9525 12.0917 17.0692 10.2083 14.7525 10.2083C14.4108 10.2083 14.1275 10.4917 14.1275 10.8333C14.1275 11.175 14.4108 11.4583 14.7525 11.4583C16.3775 11.4583 17.7025 12.7833 17.7025 14.4083C17.7025 14.85 17.3442 15.2083 16.9025 15.2083C16.5608 15.2083 16.2775 15.4917 16.2775 15.8333ZM1.04321 14.4083C1.04321 15.5417 1.95988 16.4583 3.09321 16.4583C3.43488 16.4583 3.71821 16.175 3.71821 15.8333C3.71821 15.4917 3.43488 15.2083 3.09321 15.2083C2.65155 15.2083 2.29321 14.85 2.29321 14.4083C2.29321 12.7833 3.61821 11.4583 5.24321 11.4583C5.58488 11.4583 5.86821 11.175 5.86821 10.8333C5.86821 10.4917 5.58488 10.2083 5.24321 10.2083C2.92655 10.2083 1.04321 12.0917 1.04321 14.4083Z" fill="#5C5C5C"/>
</svg>
