<svg width="20" height="20" viewBox="0 0 20 20" fill="currentColor" xmlns="http://www.w3.org/2000/svg">
<path d="M16.4543 10.8333C17.1134 9.8885 17.4999 8.73934 17.4999 7.5C17.4999 4.27835 14.8883 1.66667 11.6666 1.66667C8.44492 1.66667 5.83325 4.27834 5.83325 7.5C5.83325 8.39467 6.03466 9.24225 6.39461 10" stroke="#5C5C5C" stroke-width="1.5" stroke-linecap="round" stroke-linejoin="round"/>
<path d="M11.6667 5.00001C10.7462 5.00001 10 5.55965 10 6.25001C10 6.94036 10.7462 7.50001 11.6667 7.50001C12.5872 7.50001 13.3333 8.05965 13.3333 8.75C13.3333 9.44034 12.5872 10 11.6667 10M11.6667 5.00001C12.3923 5.00001 13.0097 5.34784 13.2385 5.83334M11.6667 5.00001V4.16667M11.6667 10C10.941 10 10.3237 9.65217 10.0948 9.16667M11.6667 10V10.8333" stroke="#5C5C5C" stroke-width="1.5" stroke-linecap="round"/>
<path d="M2.5 11.6667H4.49568C4.74081 11.6667 4.98257 11.7219 5.20181 11.828L6.90346 12.6513C7.1227 12.7574 7.36446 12.8126 7.60958 12.8126H8.47842C9.31875 12.8126 10 13.4718 10 14.285C10 14.3178 9.9775 14.3468 9.94483 14.3558L7.82739 14.9413C7.44756 15.0463 7.04083 15.0097 6.6875 14.8387L4.86843 13.9586M10 13.75L13.8273 12.5741C14.5058 12.3627 15.2392 12.6133 15.6642 13.2019C15.9716 13.6274 15.8464 14.2368 15.3987 14.4952L9.13575 18.1088C8.73742 18.3386 8.26745 18.3947 7.8293 18.2647L2.5 16.6833" stroke="#5C5C5C" stroke-width="1.5" stroke-linecap="round" stroke-linejoin="round"/>
</svg>
