<svg width="20" height="20" viewBox="0 0 20 20" fill="currentColor" xmlns="http://www.w3.org/2000/svg">
<path d="M10.4167 2.70834C8.53333 2.70834 7.18333 2.71001 6.15667 2.84751C5.14833 2.98334 4.54583 3.24084 4.10167 3.68501C3.6575 4.12918 3.4 4.73168 3.26417 5.74001C3.12667 6.76668 3.125 8.11668 3.125 10C3.125 11.8833 3.12667 13.2333 3.26417 14.26C3.4 15.2692 3.6575 15.8708 4.10167 16.3158C4.54583 16.7592 5.14833 17.0167 6.15667 17.1525C7.18333 17.29 8.53333 17.2917 10.4167 17.2917C12.3 17.2917 13.65 17.29 14.6767 17.1525C15.685 17.0167 16.2875 16.7592 16.7317 16.3158C17.1758 15.8708 17.4333 15.2692 17.5692 14.26C17.7067 13.2333 17.7083 11.8833 17.7083 10C17.7083 9.72668 17.7075 9.51918 17.7067 9.38084C17.7058 9.31168 17.7058 9.26001 17.705 9.22584V9.18668V9.17584C17.7 8.83001 17.9767 8.54584 18.3217 8.54168C18.6667 8.53751 18.95 8.81334 18.955 9.15834V9.17251V9.21334C18.9558 9.24918 18.9558 9.30251 18.9567 9.37251C18.9575 9.51334 18.9583 9.72334 18.9583 10V10.0475C18.9583 11.8733 18.9583 13.3075 18.8075 14.4267C18.6533 15.5742 18.3308 16.4842 17.6158 17.1992C16.9008 17.9142 15.9908 18.2367 14.8433 18.3908C13.7242 18.5417 12.2917 18.5417 10.4675 18.5417H10.3658C8.54167 18.5417 7.10917 18.5417 5.99 18.3908C4.8425 18.2367 3.9325 17.9142 3.2175 17.1992C2.5025 16.4842 2.18 15.5742 2.02583 14.4267C1.875 13.3075 1.875 11.8733 1.875 10.0475V9.95251C1.875 8.12668 1.875 6.69251 2.02583 5.57334C2.18 4.42584 2.5025 3.51584 3.2175 2.80084C3.9325 2.08584 4.8425 1.76334 5.99 1.60918C7.10917 1.45834 8.54333 1.45834 10.3692 1.45834H11.25C11.595 1.45834 11.875 1.73834 11.875 2.08334C11.875 2.42834 11.595 2.70834 11.25 2.70834H10.4167ZM12.7083 4.58334C12.7083 2.85751 14.1075 1.45834 15.8333 1.45834C17.5592 1.45834 18.9583 2.85751 18.9583 4.58334C18.9583 6.30918 17.5592 7.70834 15.8333 7.70834C14.1075 7.70834 12.7083 6.30918 12.7083 4.58334ZM15.8333 2.70834C14.7975 2.70834 13.9583 3.54751 13.9583 4.58334C13.9583 5.61918 14.7975 6.45834 15.8333 6.45834C16.8692 6.45834 17.7083 5.61918 17.7083 4.58334C17.7083 3.54751 16.8692 2.70834 15.8333 2.70834ZM10 6.45834C10.345 6.45834 10.625 6.73834 10.625 7.08334V14.5833C10.625 14.9283 10.345 15.2083 10 15.2083C9.655 15.2083 9.375 14.9283 9.375 14.5833V7.08334C9.375 6.73834 9.655 6.45834 10 6.45834ZM14.1667 10.625C14.5117 10.625 14.7917 10.905 14.7917 11.25V14.5833C14.7917 14.9283 14.5117 15.2083 14.1667 15.2083C13.8217 15.2083 13.5417 14.9283 13.5417 14.5833V11.25C13.5417 10.905 13.8217 10.625 14.1667 10.625ZM5.83333 11.4583C6.17833 11.4583 6.45833 11.7383 6.45833 12.0833V14.5833C6.45833 14.9283 6.17833 15.2083 5.83333 15.2083C5.48833 15.2083 5.20833 14.9283 5.20833 14.5833V12.0833C5.20833 11.7383 5.48833 11.4583 5.83333 11.4583Z" fill="#335CFF"/>
</svg>
