<svg width="20" height="20" viewBox="0 0 20 20" fill="currentColor" xmlns="http://www.w3.org/2000/svg">
<path d="M10.8334 17.2917C10.4884 17.2917 10.2084 17.0117 10.2084 16.6667C10.2084 16.3217 10.4884 16.0417 10.8334 16.0417H13.3334C15.5134 16.0417 16.6076 16.0417 17.1584 15.4917C17.7084 14.9417 17.7084 13.8475 17.7084 11.6667V10.8333C17.7084 8.65334 17.7084 7.55918 17.1584 7.00834C16.8009 6.65084 16.2117 6.50584 14.9859 6.47418H14.9751C14.5034 6.45834 13.9609 6.45834 13.3334 6.45834H8.33342C7.98842 6.45834 7.70842 6.17834 7.70842 5.83334C7.70842 5.48834 7.98842 5.20834 8.33342 5.20834H13.3334C13.7067 5.20834 14.0509 5.20834 14.3709 5.21168C14.3634 4.91418 14.3442 4.71834 14.2909 4.59251C14.1859 4.34168 13.9917 4.14751 13.7434 4.04334C13.5409 3.95834 13.1651 3.95834 12.4834 3.95834H8.33342C5.36508 3.95834 3.87591 3.95834 3.08341 4.75001C2.32091 5.51251 2.29175 5.95251 2.29175 9.16668V10.8333C2.29175 11.1783 2.01175 11.4583 1.66675 11.4583C1.32175 11.4583 1.04175 11.1783 1.04175 10.8333V9.16668C1.04175 5.98501 1.04175 5.02418 2.20008 3.86668C3.35841 2.70834 5.02092 2.70834 8.33342 2.70834H12.4834C13.3276 2.70834 13.7926 2.70834 14.2259 2.89084C14.7792 3.12168 15.2126 3.55418 15.4434 4.11001C15.5767 4.42668 15.6117 4.76168 15.6217 5.25251C16.6626 5.32418 17.4501 5.53251 18.0417 6.12501C18.9584 7.04084 18.9584 8.38834 18.9584 10.8333V11.6667C18.9584 14.1117 18.9584 15.4592 18.0417 16.375C17.1251 17.2917 15.7784 17.2917 13.3334 17.2917H10.8334ZM1.04175 15C1.04175 13.7367 2.07008 12.7083 3.33341 12.7083C4.00258 12.7083 4.60508 13.0975 5.02508 13.5975C5.43258 13.11 6.00508 12.7083 6.66675 12.7083C7.99091 12.7083 8.95842 13.7367 8.95842 15C8.95842 16.2633 7.93008 17.2917 6.66675 17.2917C6.00508 17.2917 5.43258 16.89 5.02508 16.4033C4.60592 16.9033 4.00341 17.2917 3.33341 17.2917C2.07008 17.2917 1.04175 16.2633 1.04175 15ZM12.7084 11.6667C12.7084 10.6325 13.5492 9.79168 14.5834 9.79168C15.6176 9.79168 16.4584 10.6325 16.4584 11.6667C16.4584 12.7008 15.6176 13.5417 14.5834 13.5417C13.5492 13.5417 12.7084 12.7008 12.7084 11.6667ZM3.33341 13.9583C2.75925 13.9583 2.29175 14.4258 2.29175 15C2.29175 15.5742 2.75925 16.0417 3.33341 16.0417C3.87008 16.0417 4.37508 15.2333 4.37508 15C4.37508 14.7667 3.87008 13.9583 3.33341 13.9583ZM5.62925 15C5.65758 15.11 5.78591 15.38 6.00758 15.6333C6.23425 15.8933 6.47508 16.0417 6.66758 16.0417C7.24175 16.0417 7.70925 15.5742 7.70925 15C7.70925 14.4258 7.24175 13.9583 6.66758 13.9583C6.47508 13.9583 6.23508 14.1075 6.00758 14.3667C5.78591 14.62 5.65758 14.89 5.62925 15ZM13.9584 11.6667C13.9584 12.0108 14.2384 12.2917 14.5834 12.2917C14.9284 12.2917 15.2084 12.0108 15.2084 11.6667C15.2084 11.3225 14.9284 11.0417 14.5834 11.0417C14.2384 11.0417 13.9584 11.3225 13.9584 11.6667Z" fill="#5C5C5C"/>
</svg>
