<svg width="20" height="20" viewBox="0 0 20 20" fill="currentColor" xmlns="http://www.w3.org/2000/svg">
<path d="M5.2658 3.54166C6.15497 3.54166 7.02913 3.98249 7.87413 4.70582C8.55413 5.28916 9.25413 6.08832 9.9758 7.08999C10.6258 6.09916 11.2575 5.30666 11.8733 4.72582C12.6408 4.00249 13.455 3.54166 14.3041 3.54166C15.5133 3.54166 16.4366 4.25666 17.1125 5.25832C17.7833 6.25249 18.2675 7.60499 18.6166 9.09666C18.9558 10.5483 19.085 12.29 18.8075 13.7025C18.6691 14.4075 18.4191 15.0833 17.9941 15.595C17.55 16.1283 16.9325 16.4583 16.1558 16.4583C15.7475 16.4583 15.3558 16.31 15.0016 16.1042C14.6441 15.8967 14.2858 15.6067 13.9358 15.2692C13.235 14.5933 12.5058 13.6675 11.8 12.6367C11.1283 11.6658 10.5191 10.65 9.97497 9.59582C9.3933 10.62 8.71913 11.6408 7.95247 12.6592C7.17663 13.69 6.37413 14.615 5.6058 15.2892C4.86663 15.9367 4.0408 16.4583 3.2283 16.4583C2.4158 16.4583 1.7583 16.1458 1.27413 15.6175C0.806633 15.1067 0.529132 14.4267 0.374966 13.7142C0.0682992 12.2908 0.211633 10.54 0.585799 9.08332C0.970799 7.58749 1.50497 6.23082 2.24413 5.23499C2.99247 4.22666 3.9908 3.54166 5.2658 3.54166ZM1.79663 9.39416C1.45413 10.7267 1.3433 12.2725 1.59747 13.45C1.72413 14.0375 1.9308 14.4833 2.19663 14.7733C2.44497 15.045 2.7683 15.2083 3.2283 15.2083C3.5508 15.2083 4.0733 14.9692 4.78163 14.3492C5.45997 13.755 6.2033 12.9042 6.95413 11.9067C7.8708 10.69 8.6433 9.47666 9.27497 8.26832C8.47163 7.09416 7.73246 6.23082 7.0608 5.65499C6.32747 5.02666 5.73413 4.79166 5.2658 4.79166C4.5033 4.79166 3.83997 5.18249 3.2483 5.97999C2.64663 6.78999 2.1633 7.96999 1.79663 9.39416ZM12.8291 11.9275L12.8308 11.93C13.5141 12.9275 14.1891 13.7767 14.8033 14.3692C15.11 14.665 15.3875 14.8825 15.63 15.0233C15.8758 15.1667 16.0483 15.2083 16.1558 15.2083C16.5366 15.2083 16.8108 15.0633 17.0333 14.795C17.2741 14.5058 17.4641 14.0567 17.5808 13.4617C17.8141 12.2733 17.7116 10.7183 17.3991 9.38082C17.065 7.95249 16.6241 6.76916 16.0766 5.95666C15.5333 5.15249 14.9466 4.79166 14.3041 4.79166C13.9183 4.79166 13.3983 5.00666 12.7308 5.63582C12.12 6.21166 11.445 7.07999 10.7091 8.26416C11.3191 9.54416 12.0283 10.7692 12.8291 11.9275Z" fill="#5C5C5C"/>
</svg>
