<svg width="20" height="20" viewBox="0 0 20 20" fill="none" xmlns="http://www.w3.org/2000/svg">
<path d="M10.625 1.04169C11.0275 1.04169 11.48 1.11085 11.8508 1.35335C12.2625 1.62335 12.5 2.05919 12.5 2.60419C12.5 2.99085 12.3825 3.39085 12.1908 3.73669C14.8175 4.40585 16.8017 6.71752 16.9508 9.54335C16.9583 9.68669 16.9633 9.82419 16.9692 9.95669C16.9875 10.4084 17.0033 10.8017 17.0858 11.1775C17.1833 11.6275 17.3642 11.9809 17.7317 12.2567C18.3725 12.7375 18.75 13.4925 18.75 14.2942C18.75 15.445 17.8442 16.4584 16.625 16.4584H13.6875C13.3975 17.885 12.1367 18.9584 10.625 18.9584C9.11333 18.9584 7.85167 17.885 7.5625 16.4584H4.625C3.40583 16.4584 2.5 15.445 2.5 14.2942C2.5 13.55 2.825 12.8459 3.385 12.3642L3.51833 12.2567C3.88583 11.9809 4.06667 11.6275 4.16417 11.1775C4.23 10.8767 4.25333 10.565 4.26917 10.2209L4.28083 9.95669C4.28667 9.82419 4.29167 9.68669 4.29917 9.54335C4.44833 6.71752 6.4325 4.40585 9.05917 3.73669C8.8675 3.39085 8.75 2.99085 8.75 2.60419C8.75 2.05919 8.9875 1.62335 9.39917 1.35335C9.77 1.11085 10.2225 1.04169 10.625 1.04169ZM10.625 4.79169C7.92083 4.79169 5.69 6.90835 5.5475 9.60835C5.5425 9.71502 5.5375 9.82752 5.53333 9.94502C5.515 10.4117 5.49333 10.9492 5.38583 11.4434C5.24417 12.0984 4.94 12.7534 4.26833 13.2567C3.94167 13.5017 3.75 13.8859 3.75 14.2942C3.75 14.8067 4.14667 15.2084 4.625 15.2084H16.625C17.1033 15.2084 17.5 14.8067 17.5 14.2942C17.5 13.8859 17.3083 13.5017 16.9817 13.2567C16.31 12.7534 16.0058 12.0984 15.8642 11.4434C15.7783 11.0484 15.7475 10.625 15.7292 10.2325L15.7167 9.94502C15.7125 9.82752 15.7075 9.71502 15.7025 9.60835C15.56 6.90835 13.3292 4.79169 10.625 4.79169ZM12.3933 16.4584H8.85667C9.11417 17.1867 9.80833 17.7084 10.625 17.7084C11.4417 17.7084 12.1358 17.1867 12.3933 16.4584ZM10.625 2.29169C10.3375 2.29169 10.165 2.34585 10.0833 2.39919C10.05 2.42169 10.035 2.44085 10.0267 2.45752C10.0167 2.47502 10 2.51752 10 2.60419C10 2.79752 10.0858 3.06002 10.2425 3.27169C10.4042 3.48919 10.5525 3.54169 10.625 3.54169C10.6975 3.54169 10.8458 3.48919 11.0075 3.27169C11.1642 3.06002 11.25 2.79752 11.25 2.60419C11.25 2.51752 11.2333 2.47502 11.2233 2.45752C11.215 2.44085 11.2 2.42169 11.1667 2.39919C11.085 2.34585 10.9125 2.29169 10.625 2.29169Z" fill="#5C5C5C"/>
</svg>
