<svg width="20" height="20" viewBox="0 0 20 20" fill="none" xmlns="http://www.w3.org/2000/svg">
<path fill-rule="evenodd" clip-rule="evenodd" d="M1.45752 7.91018C1.45752 11.4685 4.35752 14.3685 7.91585 14.3685C9.47067 14.3685 10.8998 13.8149 12.0162 12.8945C12.0289 12.9101 12.0426 12.9252 12.0571 12.9397L13.3071 14.1897C12.9819 14.8804 13.1042 15.7328 13.6737 16.3023L15.3737 18.0024C15.732 18.3607 16.207 18.5357 16.682 18.5357V18.544C17.157 18.544 17.632 18.3607 17.9987 18.0024C18.7237 17.2774 18.7237 16.0939 17.9987 15.3689L16.2987 13.669C15.7287 13.1056 14.8807 12.9851 14.1918 13.3075L14.1904 13.3063L12.9404 12.0563C12.9261 12.0419 12.9112 12.0284 12.8958 12.0158C13.8188 10.8986 14.3742 9.46744 14.3742 7.91018C14.3742 4.35184 11.4742 1.45184 7.91585 1.45184C4.35752 1.45184 1.45752 4.35184 1.45752 7.91018ZM2.70752 7.91018C2.70752 5.03518 5.04085 2.70184 7.91585 2.70184C10.7908 2.70184 13.1242 5.03518 13.1242 7.91018C13.1242 10.7852 10.7908 13.1185 7.91585 13.1185C5.04085 13.1185 2.70752 10.7852 2.70752 7.91018ZM14.5487 15.4107L16.2487 17.1107C16.482 17.344 16.8737 17.344 17.1153 17.1107C17.3487 16.8774 17.3487 16.4857 17.1153 16.244L15.4153 14.5439C15.182 14.3106 14.7903 14.3106 14.5487 14.5439C14.3153 14.7773 14.3153 15.169 14.5487 15.4107Z" fill="#5C5C5C"/>
</svg>
