<svg width="20" height="20" viewBox="0 0 20 20" fill="currentColor" xmlns="http://www.w3.org/2000/svg">
<path d="M7.25175 1.6225C7.50925 1.6575 7.70008 1.805 7.81008 1.8975C7.92675 1.99584 8.06091 2.12917 8.20341 2.27167L8.22008 2.28834C9.19258 3.25834 10.8092 3.25834 11.7817 2.28834L11.7984 2.27167C11.9409 2.12917 12.0751 1.99584 12.1909 1.8975C12.3009 1.805 12.4917 1.6575 12.7501 1.6225C12.9867 1.59084 13.1867 1.66 13.3226 1.71917C13.4476 1.77417 13.5884 1.85417 13.7259 1.9325L15.2042 2.77167C15.3442 2.85084 15.4876 2.9325 15.6001 3.0125C15.7209 3.09917 15.8851 3.23667 15.9801 3.46C16.0826 3.7025 16.0492 3.94834 16.0251 4.09C15.9984 4.24334 15.9492 4.43167 15.8967 4.63334L15.8909 4.65667C15.5609 5.92834 16.3667 7.29584 17.6717 7.64834L17.6951 7.65417C17.8926 7.7075 18.0776 7.7575 18.2226 7.81C18.3576 7.85917 18.5842 7.95167 18.7434 8.16C18.8901 8.35084 18.9292 8.56084 18.9442 8.70917C18.9584 8.84584 18.9584 9.01 18.9584 9.16917V10.8283C18.9584 10.9875 18.9584 11.1517 18.9442 11.2883C18.9292 11.4367 18.8901 11.6467 18.7434 11.8375C18.5842 12.0458 18.3576 12.1383 18.2226 12.1875C18.0776 12.24 17.8926 12.29 17.6951 12.3433L17.6717 12.3492C16.3676 12.7008 15.5617 14.0683 15.8926 15.3408L15.8984 15.3642C15.9509 15.5658 16.0001 15.7542 16.0259 15.9075C16.0509 16.0492 16.0842 16.2942 15.9809 16.5375C15.8867 16.76 15.7226 16.8983 15.6009 16.985C15.4884 17.065 15.3451 17.1458 15.2059 17.225L13.7267 18.065C13.5901 18.1425 13.4492 18.2225 13.3234 18.2775C13.1876 18.3375 12.9876 18.4067 12.7509 18.3742C12.4934 18.34 12.3026 18.1917 12.1926 18.0992C12.0759 18.0017 11.9417 17.8675 11.7992 17.7258L11.7826 17.7083C10.8101 16.7383 9.19175 16.7383 8.21842 17.7092L8.20175 17.7258C8.05925 17.8675 7.92592 18.0017 7.80925 18.0992C7.69925 18.1917 7.50842 18.34 7.25092 18.3742C7.01342 18.4067 6.81341 18.3375 6.67758 18.2775C6.55258 18.2233 6.41175 18.1425 6.27508 18.065L4.79591 17.225C4.65592 17.1458 4.51258 17.065 4.40008 16.985C4.27925 16.8983 4.11425 16.7608 4.02008 16.5375C3.91758 16.2942 3.95091 16.0492 3.97508 15.9075C4.00175 15.7542 4.05091 15.5658 4.10341 15.3642L4.10925 15.3408C4.43925 14.0692 3.63341 12.7008 2.32841 12.3492L2.30508 12.3433C2.10758 12.29 1.92258 12.24 1.77758 12.1875C1.64258 12.1383 1.41591 12.0458 1.25675 11.8375C1.11008 11.6467 1.07091 11.4367 1.05591 11.2883C1.04175 11.1517 1.04175 10.9875 1.04175 10.8283V10.8042V9.19334V9.16917C1.04175 9.01 1.04175 8.84584 1.05591 8.70917C1.07091 8.56084 1.11008 8.35084 1.25675 8.15917C1.41591 7.95167 1.64258 7.85917 1.77758 7.81C1.92258 7.7575 2.10758 7.7075 2.30508 7.65417L2.32841 7.64834C3.63425 7.29584 4.44092 5.92834 4.11008 4.65667L4.10425 4.63334C4.05175 4.43084 4.00258 4.24334 3.97675 4.08917C3.95175 3.9475 3.91925 3.7025 4.02175 3.45917C4.11592 3.23667 4.28008 3.09917 4.40175 3.0125C4.51425 2.9325 4.65758 2.85084 4.79675 2.77167L4.81841 2.76L6.25508 1.94417L6.27592 1.9325C6.41258 1.85417 6.55425 1.77417 6.67925 1.71917C6.81508 1.66 7.01508 1.59084 7.25175 1.6225ZM6.87258 3.03084L5.43508 3.84667C5.35425 3.8925 5.29092 3.92917 5.23758 3.96084L5.22675 3.9675C5.24591 4.05584 5.27675 4.17334 5.32008 4.3425C5.82841 6.3 4.59925 8.33084 2.65341 8.855C2.49091 8.89917 2.37758 8.93 2.29341 8.95584L2.29258 8.96667C2.29175 9.02834 2.29175 9.10084 2.29175 9.19334V10.8042C2.29175 10.8967 2.29175 10.9683 2.29258 11.0308L2.29341 11.0417C2.37758 11.0675 2.49091 11.0983 2.65341 11.1425C4.59925 11.6667 5.82758 13.6975 5.31925 15.655C5.27508 15.8233 5.24508 15.9417 5.22508 16.03L5.23591 16.0367C5.29008 16.0683 5.35342 16.1042 5.43425 16.15L6.87091 16.9667C6.95008 17.0108 7.01258 17.0467 7.06592 17.0758L7.07425 17.08C7.13758 17.0217 7.21925 16.94 7.33592 16.8242C8.79675 15.3667 11.2051 15.3667 12.6659 16.8242C12.7817 16.94 12.8642 17.0217 12.9267 17.08L12.9351 17.0758C12.9892 17.0467 13.0509 17.0108 13.1301 16.9658L14.5676 16.15C14.6484 16.1042 14.7117 16.0683 14.7659 16.0367L14.7767 16.03C14.7567 15.9417 14.7259 15.8233 14.6826 15.655C14.1734 13.6975 15.4009 11.6667 17.3467 11.1425C17.5092 11.0983 17.6226 11.0675 17.7067 11.0417L17.7076 11.0308C17.7084 10.9683 17.7084 10.8967 17.7084 10.8042V9.19334C17.7084 9.10084 17.7084 9.02834 17.7076 8.96667L17.7067 8.95584C17.6226 8.93 17.5092 8.89917 17.3467 8.855C15.4009 8.33 14.1726 6.3 14.6809 4.3425C14.7251 4.17334 14.7551 4.05584 14.7751 3.9675L14.7642 3.96084C14.7101 3.92917 14.6467 3.8925 14.5659 3.8475L13.1292 3.03084C13.0501 2.98584 12.9876 2.95084 12.9342 2.92167L12.9251 2.9175C12.8626 2.97584 12.7809 3.0575 12.6642 3.17334C11.2042 4.63 8.79758 4.63 7.33758 3.17334C7.22092 3.05667 7.13925 2.97584 7.07592 2.91667L7.06758 2.92167C7.01341 2.95084 6.95175 2.98584 6.87258 3.03084ZM10.0001 6.45834C11.9559 6.45834 13.5417 8.04417 13.5417 10C13.5417 11.9558 11.9559 13.5417 10.0001 13.5417C8.04425 13.5417 6.45842 11.9558 6.45842 10C6.45842 8.04417 8.04425 6.45834 10.0001 6.45834ZM7.70842 10C7.70842 11.2658 8.73425 12.2917 10.0001 12.2917C11.2659 12.2917 12.2917 11.2658 12.2917 10C12.2917 8.73417 11.2659 7.70834 10.0001 7.70834C8.73425 7.70834 7.70842 8.73417 7.70842 10Z" fill="#5C5C5C"/>
</svg>
