<svg width="27" height="20" viewBox="0 0 27 20" fill="none" xmlns="http://www.w3.org/2000/svg">
<path d="M4 0.5H23C24.933 0.5 26.5 2.067 26.5 4V16C26.5 17.933 24.933 19.5 23 19.5H4C2.067 19.5 0.5 17.933 0.5 16V4C0.5 2.067 2.067 0.5 4 0.5Z" fill="white"/>
<path d="M4 0.5H23C24.933 0.5 26.5 2.067 26.5 4V16C26.5 17.933 24.933 19.5 23 19.5H4C2.067 19.5 0.5 17.933 0.5 16V4C0.5 2.067 2.067 0.5 4 0.5Z" stroke="#EBEBEB"/>
<path d="M8.448 14C7.888 14 7.44 13.836 7.104 13.508C6.776 13.18 6.612 12.74 6.612 12.188C6.612 11.604 6.784 11.152 7.128 10.832C7.48 10.504 7.996 10.34 8.676 10.34H9.384V9.02H8.676C7.996 9.02 7.48 8.86 7.128 8.54C6.784 8.212 6.612 7.756 6.612 7.172C6.612 6.62 6.776 6.18 7.104 5.852C7.44 5.524 7.888 5.36 8.448 5.36C8.896 5.36 9.248 5.444 9.504 5.612C9.768 5.78 9.952 6.004 10.056 6.284C10.168 6.564 10.224 6.872 10.224 7.208V8.204H11.544V7.208C11.544 6.872 11.596 6.564 11.7 6.284C11.812 6.004 11.996 5.78 12.252 5.612C12.516 5.444 12.872 5.36 13.32 5.36C13.88 5.36 14.324 5.524 14.652 5.852C14.988 6.18 15.156 6.62 15.156 7.172C15.156 7.756 14.984 8.212 14.64 8.54C14.296 8.86 13.78 9.02 13.092 9.02H12.384V10.34H13.092C13.78 10.34 14.296 10.504 14.64 10.832C14.984 11.152 15.156 11.604 15.156 12.188C15.156 12.74 14.988 13.18 14.652 13.508C14.324 13.836 13.88 14 13.32 14C12.872 14 12.516 13.916 12.252 13.748C11.996 13.58 11.812 13.356 11.7 13.076C11.596 12.796 11.544 12.488 11.544 12.152V11.156H10.224V12.152C10.224 12.488 10.168 12.796 10.056 13.076C9.952 13.356 9.768 13.58 9.504 13.748C9.248 13.916 8.896 14 8.448 14ZM12.384 7.184V8.204H13.092C13.516 8.204 13.824 8.12 14.016 7.952C14.208 7.776 14.304 7.516 14.304 7.172C14.304 6.82 14.208 6.568 14.016 6.416C13.832 6.264 13.6 6.188 13.32 6.188C13.008 6.188 12.772 6.28 12.612 6.464C12.46 6.64 12.384 6.88 12.384 7.184ZM8.676 8.204H9.384V7.184C9.384 6.88 9.304 6.64 9.144 6.464C8.992 6.28 8.76 6.188 8.448 6.188C8.168 6.188 7.932 6.264 7.74 6.416C7.556 6.568 7.464 6.82 7.464 7.172C7.464 7.516 7.56 7.776 7.752 7.952C7.944 8.12 8.252 8.204 8.676 8.204ZM10.224 10.34H11.544V9.02H10.224V10.34ZM8.448 13.172C8.76 13.172 8.992 13.084 9.144 12.908C9.304 12.724 9.384 12.48 9.384 12.176V11.156H8.676C8.252 11.156 7.944 11.244 7.752 11.42C7.56 11.588 7.464 11.844 7.464 12.188C7.464 12.54 7.556 12.792 7.74 12.944C7.932 13.096 8.168 13.172 8.448 13.172ZM12.384 12.176C12.384 12.48 12.46 12.724 12.612 12.908C12.772 13.084 13.008 13.172 13.32 13.172C13.6 13.172 13.832 13.096 14.016 12.944C14.208 12.792 14.304 12.54 14.304 12.188C14.304 11.844 14.208 11.588 14.016 11.42C13.824 11.244 13.516 11.156 13.092 11.156H12.384V12.176ZM18.2454 14V5.6H19.6014V14H18.2454ZM16.5654 6.836V5.6H19.4814V6.836H16.5654Z" fill="#A4A4A4"/>
</svg>
