<svg width="20" height="20" viewBox="0 0 20 20" fill="currentColor" xmlns="http://www.w3.org/2000/svg">
<path d="M4.37508 2.5C4.37508 1.69416 5.02841 1.04166 5.83342 1.04166C6.63841 1.04166 7.29175 1.69416 7.29175 2.5C7.29175 3.08166 6.95091 3.58416 6.45842 3.81833V5.25416C7.08508 5.20833 7.82925 5.20833 8.70258 5.20833H11.2976C12.1709 5.20833 12.9151 5.20833 13.5417 5.25416V3.81833C13.0492 3.58416 12.7084 3.08166 12.7084 2.5C12.7084 1.69416 13.3617 1.04166 14.1667 1.04166C14.9717 1.04166 15.6251 1.69416 15.6251 2.5C15.6251 3.08166 15.2842 3.58416 14.7917 3.81833V5.46C15.2401 5.59583 15.6334 5.81083 15.9676 6.15666C16.4651 6.67166 16.6784 7.3175 16.7784 8.0875C16.8126 8.35333 16.8351 8.64583 16.8492 8.96583C18.0292 9.05833 18.9584 10.0458 18.9584 11.25C18.9584 12.4642 18.0134 13.4583 16.8192 13.5367C16.8076 13.6717 16.7942 13.8008 16.7784 13.9242C16.6784 14.6942 16.4651 15.34 15.9676 15.855C15.5634 16.2725 15.0234 16.4917 14.4701 16.615C14.4159 16.6275 14.3717 16.6375 14.3334 16.6458C14.3417 16.6983 14.3559 16.7583 14.3734 16.8267L14.3859 16.8742L14.3917 16.8975C14.4067 16.9533 14.4234 17.0175 14.4351 17.0683C14.4934 17.3175 14.5401 17.5658 14.5476 17.7908C14.5542 18.005 14.5301 18.2975 14.3467 18.55C14.1434 18.83 13.8434 18.9317 13.5817 18.9533C13.3342 18.9733 13.0626 18.9308 12.7901 18.865C12.3084 18.7483 11.8526 18.4583 11.4817 18.1658C11.1009 17.865 10.7551 17.52 10.4909 17.2325C10.2701 16.9917 10.1659 16.9108 10.0817 16.87C10.0092 16.835 9.89675 16.8033 9.60425 16.8033H8.70258C7.56425 16.8033 6.64425 16.8033 5.92092 16.7025C5.16675 16.5975 4.53342 16.3733 4.03258 15.855C3.53508 15.34 3.32175 14.6942 3.22175 13.9242C3.20591 13.8008 3.19258 13.6717 3.18091 13.5367C1.98675 13.4583 1.04175 12.4642 1.04175 11.25C1.04175 10.0458 1.97008 9.05833 3.15091 8.96583C3.16508 8.64583 3.18758 8.35333 3.22175 8.0875C3.32175 7.3175 3.53508 6.67166 4.03258 6.15666C4.36675 5.81083 4.76008 5.59583 5.20842 5.46V3.81833C4.71591 3.58416 4.37508 3.08166 4.37508 2.5ZM6.09341 6.54666C5.48508 6.63166 5.16341 6.78583 4.93175 7.025C4.69758 7.2675 4.54425 7.61 4.46175 8.24833C4.37592 8.90333 4.37508 9.76916 4.37508 11.0058C4.37508 12.2417 4.37592 13.1083 4.46175 13.7633C4.54425 14.4017 4.69758 14.7433 4.93175 14.9858C5.16341 15.2258 5.48508 15.38 6.09341 15.4642C6.72091 15.5517 7.55341 15.5533 8.75008 15.5533H9.60425C9.97175 15.5533 10.3059 15.5892 10.6276 15.7458C10.9392 15.8967 11.1784 16.1317 11.4117 16.3867C11.6509 16.6467 11.9459 16.94 12.2559 17.1842C12.5751 17.4367 12.8617 17.5967 13.0834 17.65C13.1617 17.6692 13.2276 17.6825 13.2842 17.6917C13.2726 17.6042 13.2509 17.4933 13.2184 17.3533C13.2142 17.3383 13.2076 17.3125 13.1992 17.2792C13.1701 17.1683 13.1184 16.9742 13.0951 16.8192C13.0634 16.615 13.0309 16.2383 13.2501 15.9067C13.3867 15.7008 13.5684 15.5875 13.7434 15.5192C13.8792 15.4658 14.0392 15.4308 14.1717 15.4008L14.1976 15.395C14.6301 15.2983 14.9026 15.1575 15.0684 14.9858C15.3026 14.7433 15.4559 14.4017 15.5384 13.7633C15.6242 13.1083 15.6251 12.2417 15.6251 11.0058C15.6251 9.76916 15.6242 8.90333 15.5384 8.24833C15.4559 7.61 15.3026 7.2675 15.0684 7.025C14.8367 6.78583 14.5142 6.63166 13.9067 6.54666C13.2792 6.46 12.4467 6.45833 11.2501 6.45833H8.75008C7.55341 6.45833 6.72091 6.46 6.09341 6.54666ZM8.37258 12.0725C8.71675 12.4392 9.30175 12.7083 10.0001 12.7083C10.6984 12.7083 11.2834 12.4392 11.6276 12.0725C11.8642 11.8208 12.2592 11.8083 12.5109 12.0442C12.7626 12.2808 12.7751 12.6758 12.5392 12.9275C11.9334 13.5725 11.0059 13.9583 10.0001 13.9583C8.99425 13.9583 8.06675 13.5725 7.46092 12.9275C7.22508 12.6758 7.23758 12.2808 7.48925 12.0442C7.74092 11.8083 8.13591 11.8208 8.37258 12.0725ZM6.66675 9.16666C6.66675 8.70666 7.04008 8.33333 7.50008 8.33333H7.50758C7.96758 8.33333 8.34091 8.70666 8.34091 9.16666C8.34091 9.62666 7.96758 10 7.50758 10H7.50008C7.04008 10 6.66675 9.62666 6.66675 9.16666ZM12.5001 8.33333H12.5076C12.9676 8.33333 13.3409 8.70666 13.3409 9.16666C13.3409 9.62666 12.9676 10 12.5076 10H12.5001C12.0401 10 11.6667 9.62666 11.6667 9.16666C11.6667 8.70666 12.0401 8.33333 12.5001 8.33333ZM16.8751 10.9608V11.05C16.8751 11.4892 16.8751 11.8958 16.8701 12.2717C17.3484 12.1775 17.7084 11.7558 17.7084 11.25C17.7084 10.7458 17.3501 10.325 16.8742 10.2292C16.8751 10.4625 16.8751 10.7058 16.8751 10.9608ZM3.12508 11.05V10.955C3.12508 10.7025 3.12508 10.4608 3.12591 10.2292C2.65008 10.325 2.29175 10.7458 2.29175 11.25C2.29175 11.7558 2.65175 12.1775 3.13008 12.2717C3.12508 11.8958 3.12508 11.4892 3.12508 11.05ZM13.9584 2.5C13.9584 2.615 14.0517 2.70833 14.1667 2.70833C14.2817 2.70833 14.3751 2.615 14.3751 2.5C14.3751 2.385 14.2817 2.29166 14.1667 2.29166C14.0517 2.29166 13.9584 2.385 13.9584 2.5ZM5.83342 2.29166C5.71841 2.29166 5.62508 2.385 5.62508 2.5C5.62508 2.615 5.71841 2.70833 5.83342 2.70833C5.94841 2.70833 6.04175 2.615 6.04175 2.5C6.04175 2.385 5.94841 2.29166 5.83342 2.29166Z" fill="#5C5C5C"/>
</svg>
