<svg width="20" height="20" viewBox="0 0 20 20" fill="currentColor" xmlns="http://www.w3.org/2000/svg">
<path fill-rule="evenodd" clip-rule="evenodd" d="M11.8751 6.24999C11.8751 6.59166 12.1584 6.87499 12.5001 6.87499C12.8417 6.87499 13.1251 6.59166 13.1251 6.24999V4.58332C13.1251 4.24166 12.8417 3.95832 12.5001 3.95832C12.1584 3.95832 11.8751 4.24166 11.8751 4.58332V6.24999ZM9.37508 6.24999C9.37508 6.59166 9.65841 6.87499 10.0001 6.87499C10.3417 6.87499 10.6251 6.59166 10.6251 6.24999V2.91666C10.6251 2.57499 10.3417 2.29166 10.0001 2.29166C9.65841 2.29166 9.37508 2.57499 9.37508 2.91666V6.24999ZM6.87508 6.24999C6.87508 6.59166 7.15841 6.87499 7.50008 6.87499C7.84175 6.87499 8.12508 6.59166 8.12508 6.24999V4.58332C8.12508 4.24166 7.84175 3.95832 7.50008 3.95832C7.15841 3.95832 6.87508 4.24166 6.87508 4.58332V6.24999ZM2.4834 17.1763C4.2584 17.5763 5.61677 17.7097 6.73343 17.7097V17.7013C8.03343 17.7013 9.01675 17.5181 9.98341 17.3347L10.0072 17.3302C10.9748 17.1483 11.9778 16.9597 13.3334 16.9597C14.4001 16.9597 15.3917 17.0514 16.2751 17.2181C16.9334 17.3514 17.6417 17.1514 18.1834 16.7097C18.6667 16.3097 18.9501 15.7431 18.9501 15.1514V13.8592C18.9556 13.8263 18.9584 13.7927 18.9584 13.7583C18.9584 13.724 18.9556 13.6903 18.9501 13.6574V9.24257C18.9556 9.20966 18.9584 9.17591 18.9584 9.14166C18.9584 9.10732 18.9556 9.07357 18.9501 9.04074V7.02641C18.9501 6.25974 18.4834 5.60133 17.7917 5.38466C17.1501 5.18466 16.0751 4.92641 14.6167 4.83474C14.2751 4.81807 13.9751 5.07636 13.9501 5.41803C13.9251 5.76803 14.1917 6.05974 14.5334 6.08474C14.6247 6.09097 14.7142 6.09786 14.8021 6.10535C14.9291 7.78986 16.2152 9.33599 17.7001 9.69066V13.1814C16.1868 13.4122 14.9157 14.4495 14.5522 15.7631C14.1548 15.7386 13.7455 15.7263 13.3251 15.7263C11.8614 15.7263 10.7998 15.9232 9.77391 16.1136L9.75008 16.118L9.71916 16.1237C8.52808 16.345 7.374 16.5593 5.61729 16.4167C5.50092 14.556 4.09427 13.0405 2.28341 12.7562V9.32191C3.70186 9.07841 4.96587 8.02485 5.41375 6.72677C5.73276 6.71644 6.01022 6.48281 6.04175 6.15971C6.07508 5.80971 5.81676 5.50965 5.47509 5.47631C5.34239 5.46359 5.20572 5.44889 5.06466 5.43202C5.05163 5.4293 5.03845 5.42695 5.02511 5.425C5.00205 5.42154 4.97906 5.41947 4.95626 5.41875C4.47897 5.35891 3.95169 5.27466 3.35844 5.15965C2.77511 5.05131 2.18343 5.19307 1.73343 5.56807C1.29176 5.92641 1.04175 6.45973 1.04175 7.01806V8.74999V13.3333V15.368C1.04175 16.243 1.6334 16.9847 2.4834 17.1763ZM15.8346 15.8907C16.1217 15.2012 16.8469 14.6437 17.7001 14.4536V15.1514C17.7001 15.4431 17.5001 15.6514 17.3834 15.7514C17.1334 15.9597 16.8001 16.0513 16.5084 16.0013C16.2889 15.9597 16.0642 15.9228 15.8346 15.8907ZM17.7001 7.02641V8.38216C16.9271 8.0584 16.2513 7.194 16.0823 6.27046C16.6484 6.37003 17.0942 6.48655 17.4167 6.58471C17.6251 6.64305 17.7001 6.85141 17.7001 7.02641ZM2.28341 15.368V14.0293C3.35191 14.2797 4.18036 15.166 4.34516 16.2642C3.85806 16.1887 3.3292 16.0887 2.75007 15.9597C2.47507 15.9014 2.28341 15.6513 2.28341 15.368ZM4.12637 6.57221C3.79395 7.23154 3.10425 7.83551 2.28341 8.04605V7.01806C2.28341 6.76806 2.43343 6.60966 2.51676 6.53466C2.68343 6.40133 2.90006 6.3514 3.1084 6.39306C3.46754 6.4628 3.80625 6.52232 4.12637 6.57221ZM7.29175 11.25C7.29175 12.7417 8.50842 13.9583 10.0001 13.9583C11.4917 13.9583 12.7084 12.7417 12.7084 11.25C12.7084 9.75832 11.4917 8.54166 10.0001 8.54166C8.50842 8.54166 7.29175 9.75832 7.29175 11.25ZM8.54175 11.25C8.54175 10.45 9.20008 9.79166 10.0001 9.79166C10.8001 9.79166 11.4584 10.45 11.4584 11.25C11.4584 12.05 10.8001 12.7083 10.0001 12.7083C9.20008 12.7083 8.54175 12.05 8.54175 11.25Z" fill="#5C5C5C"/>
</svg>
