<svg width="20" height="20" viewBox="0 0 20 20" fill="currentColor" xmlns="http://www.w3.org/2000/svg">
<path d="M9.95675 1.04166H10.0434C10.7917 1.04166 11.4167 1.04166 11.9126 1.10833C12.4351 1.17833 12.9076 1.33333 13.2867 1.7125C13.6667 2.0925 13.8217 2.565 13.8917 3.08833C13.9409 3.4525 13.9534 3.88666 13.9576 4.38916C14.4817 4.4025 14.9467 4.42916 15.3592 4.48083C16.2242 4.59 16.9351 4.81916 17.5267 5.33666C17.7259 5.51166 17.9092 5.70666 18.0726 5.91916C18.5501 6.53916 18.7592 7.28083 18.8601 8.1875C18.9151 8.68 18.9392 9.24583 18.9501 9.89583C18.9551 9.92916 18.9584 9.96416 18.9584 10C18.9584 10.0292 18.9567 10.0583 18.9526 10.0858C18.9584 10.5558 18.9584 11.0692 18.9584 11.6283V11.705C18.9584 13.1333 18.9584 14.2583 18.8601 15.1458C18.7592 16.0525 18.5501 16.7942 18.0726 17.4142C17.9092 17.6267 17.7259 17.8217 17.5267 17.9967C16.9351 18.5142 16.2242 18.7433 15.3592 18.8525C14.5192 18.9583 13.4601 18.9583 12.1267 18.9583H7.87341C6.54008 18.9583 5.48091 18.9583 4.64091 18.8525C3.77591 18.7433 3.06508 18.5142 2.47341 17.9967C2.27425 17.8217 2.09091 17.6267 1.92841 17.4142C1.45091 16.7942 1.24091 16.0525 1.14008 15.1458C1.04175 14.2583 1.04175 13.1333 1.04175 11.705V11.6258C1.04175 11.0675 1.04175 10.5558 1.04758 10.0858C1.04341 10.0583 1.04175 10.0292 1.04175 10C1.04175 9.96416 1.04508 9.92916 1.05008 9.89583C1.06091 9.24583 1.08591 8.68 1.14008 8.1875C1.24091 7.28083 1.45091 6.53916 1.92841 5.91916C2.09091 5.70666 2.27425 5.51166 2.47341 5.33666C3.06508 4.81916 3.77591 4.59 4.64091 4.48083C5.05341 4.42916 5.51841 4.4025 6.04258 4.38916C6.04675 3.88666 6.05925 3.4525 6.10842 3.08833C6.17841 2.565 6.33342 2.0925 6.71258 1.7125C7.09258 1.33333 7.56508 1.17833 8.08842 1.10833C8.58342 1.04166 9.20842 1.04166 9.95675 1.04166ZM17.6868 9.375C17.6734 8.9825 17.6517 8.63583 17.6176 8.325C17.5292 7.525 17.3609 7.04416 17.0817 6.68083C16.9676 6.53333 16.8409 6.3975 16.7034 6.2775C16.3717 5.9875 15.9376 5.81333 15.2026 5.72083C14.4501 5.62583 13.4692 5.625 12.0834 5.625H7.91675C6.53091 5.625 5.54925 5.62583 4.79758 5.72083C4.06258 5.81333 3.62841 5.9875 3.29675 6.2775C3.15925 6.3975 3.03258 6.53333 2.91841 6.68083C2.63925 7.04416 2.47091 7.525 2.38258 8.325C2.34841 8.63583 2.32675 8.9825 2.31341 9.375H5.00008C5.34508 9.375 5.62508 9.655 5.62508 10C5.62508 10.345 5.34508 10.625 5.00008 10.625H2.29341C2.29175 10.9475 2.29175 11.2933 2.29175 11.6667C2.29175 13.1425 2.29258 14.1975 2.38258 15.0083C2.47091 15.8083 2.63925 16.2892 2.91841 16.6525C3.03258 16.8 3.15925 16.9358 3.29675 17.0558C3.62841 17.3458 4.06258 17.52 4.79758 17.6125C5.54925 17.7075 6.53091 17.7083 7.91675 17.7083H12.0834C13.4692 17.7083 14.4501 17.7075 15.2026 17.6125C15.9376 17.52 16.3717 17.3458 16.7034 17.0558C16.8409 16.9358 16.9676 16.8 17.0817 16.6525C17.3609 16.2892 17.5292 15.8083 17.6176 15.0083C17.7076 14.1975 17.7084 13.1425 17.7084 11.6667C17.7084 11.2933 17.7084 10.9475 17.7067 10.625H15.0001C14.6551 10.625 14.3751 10.345 14.3751 10C14.3751 9.655 14.6551 9.375 15.0001 9.375H17.6868ZM10.6251 8.33333V8.6125C11.2826 8.7625 11.8626 9.15 12.1376 9.73333C12.2842 10.0458 12.1509 10.4183 11.8384 10.565C11.5259 10.7125 11.1534 10.5783 11.0067 10.2667C10.9084 10.0592 10.5567 9.79166 10.0001 9.79166C9.66175 9.79166 9.38008 9.895 9.19675 10.0325C9.01342 10.17 8.95842 10.3125 8.95842 10.4167C8.95842 10.5208 9.01342 10.6633 9.19675 10.8008C9.38008 10.9383 9.66175 11.0417 10.0001 11.0417C10.5826 11.0417 11.1334 11.2183 11.5534 11.5325C11.9734 11.8475 12.2917 12.3308 12.2917 12.9167C12.2917 13.5025 11.9734 13.9858 11.5534 14.3008C11.2884 14.4992 10.9701 14.6433 10.6251 14.7217V15C10.6251 15.345 10.3451 15.625 10.0001 15.625C9.65508 15.625 9.37508 15.345 9.37508 15V14.7217C8.71758 14.5708 8.13758 14.1833 7.86258 13.6C7.71592 13.2875 7.84925 12.915 8.16175 12.7683C8.47425 12.6208 8.84675 12.755 8.99341 13.0667C9.09175 13.2742 9.44341 13.5417 10.0001 13.5417C10.3384 13.5417 10.6201 13.4383 10.8034 13.3008C10.9867 13.1633 11.0417 13.0208 11.0417 12.9167C11.0417 12.8125 10.9867 12.67 10.8034 12.5325C10.6201 12.395 10.3384 12.2917 10.0001 12.2917C9.41758 12.2917 8.86675 12.115 8.44675 11.8008C8.02675 11.4858 7.70842 11.0025 7.70842 10.4167C7.70842 9.83083 8.02675 9.3475 8.44675 9.0325C8.71175 8.83416 9.03008 8.69 9.37508 8.61166V8.33333C9.37508 7.98833 9.65508 7.70833 10.0001 7.70833C10.3451 7.70833 10.6251 7.98833 10.6251 8.33333ZM12.6534 3.25416C12.6009 2.87 12.5117 2.705 12.4034 2.59666C12.2951 2.48833 12.1301 2.39916 11.7459 2.3475C11.3434 2.29333 10.8034 2.29166 10.0001 2.29166C9.19675 2.29166 8.65675 2.29333 8.25425 2.3475C7.87008 2.39916 7.70508 2.48833 7.59675 2.59666C7.48842 2.705 7.39925 2.87 7.34758 3.25416C7.30842 3.5425 7.29675 3.90083 7.29342 4.375C7.48092 4.375 7.67425 4.375 7.87341 4.375H12.1267C12.3259 4.375 12.5192 4.375 12.7067 4.375C12.7034 3.90083 12.6917 3.5425 12.6534 3.25416Z" fill="#5C5C5C"/>
</svg>
